<svg width="256" height="256" viewBox="0 0 256 256" fill="none" xmlns="http://www.w3.org/2000/svg">
<rect width="256" height="256" fill="#252525"/>
<path fill-rule="evenodd" clip-rule="evenodd" d="M170.774 183C167.85 186.207 164.572 189.086 161 191.572L186.666 221.474C189.004 224.198 193.108 224.51 195.832 222.172C198.556 219.834 198.869 215.73 196.53 213.006L170.774 183Z" fill="#EDEDED"/>
<path fill-rule="evenodd" clip-rule="evenodd" d="M125 199C157.033 199 183 173.033 183 141C183 108.967 157.033 83 125 83C92.9675 83 67 108.967 67 141C67 173.033 92.9675 199 125 199ZM125 186C149.853 186 170 165.853 170 141C170 116.147 149.853 96 125 96C100.147 96 80 116.147 80 141C80 165.853 100.147 186 125 186Z" fill="#EDEDED"/>
<path d="M125 32L193 65L125 98L57 65L125 32Z" fill="#F77141"/>
<path fill-rule="evenodd" clip-rule="evenodd" d="M192.848 65.0735L125 98L67.1515 69.9265L135 37L192.848 65.0735Z" fill="#BF5E3B"/>
<path d="M124 104.626C128 96.2258 155 85.4592 168 81.1258V68.6258C131.6 56.6258 95.5 63.6258 82 68.6258V81.1258C107.2 87.9258 122.667 100.292 124 104.626Z" fill="#F77141" stroke="#252525" stroke-width="5"/>
<mask id="path-7-inside-1_124_28" fill="white">
<path fill-rule="evenodd" clip-rule="evenodd" d="M125.03 103H124V62.0044C137.517 61.9018 152.732 63.5924 168 68.6258V81.1258C155.825 85.1841 131.371 94.885 125.03 103Z"/>
</mask>
<path fill-rule="evenodd" clip-rule="evenodd" d="M125.03 103H124V62.0044C137.517 61.9018 152.732 63.5924 168 68.6258V81.1258C155.825 85.1841 131.371 94.885 125.03 103Z" fill="#BF5E3B"/>
<path d="M125.03 103V105.5H126.249L127 104.539L125.03 103ZM124 103H121.5V105.5H124V103ZM124 62.0044L123.981 59.5044L121.5 59.5232V62.0044H124ZM168 68.6258H170.5V66.8176L168.783 66.2515L168 68.6258ZM168 81.1258L168.791 83.4975L170.5 82.9277V81.1258H168ZM125.03 100.5H124V105.5H125.03V100.5ZM126.5 103V62.0044H121.5V103H126.5ZM168.783 66.2515C153.207 61.1168 137.714 59.4003 123.981 59.5044L124.019 64.5043C137.32 64.4034 152.257 66.068 167.217 71.0001L168.783 66.2515ZM170.5 81.1258V68.6258H165.5V81.1258H170.5ZM127 104.539C128.311 102.861 130.728 100.92 134.034 98.8479C137.293 96.8067 141.226 94.7545 145.388 92.8057C153.709 88.9087 162.773 85.5034 168.791 83.4975L167.209 78.7541C161.052 80.8065 151.802 84.2808 143.267 88.2776C139 90.2757 134.871 92.4239 131.38 94.6107C127.938 96.7672 124.92 99.0812 123.06 101.461L127 104.539Z" fill="#252525" mask="url(#path-7-inside-1_124_28)"/>
<path fill-rule="evenodd" clip-rule="evenodd" d="M190.89 107.444C192.192 105.174 193 102.006 193 98.5C193 91.5964 189.866 86 186 86C182.134 86 179 91.5964 179 98.5C179 102.113 179.858 105.368 181.231 107.65C182.832 107.233 184.618 107 186.5 107C188.045 107 189.524 107.157 190.89 107.444Z" fill="#BF5E3B"/>
<circle cx="186" cy="88" r="5.5" fill="#BF5E3B" stroke="#252525"/>
<rect x="183" y="59" width="6" height="29" rx="3" fill="#BF5E3B"/>
</svg>
